<svg width="1792" height="1879" xmlns="http://www.w3.org/2000/svg" xmlns:xlink="http://www.w3.org/1999/xlink" xml:space="preserve" overflow="hidden"><defs><clipPath id="clip0"><rect x="1304" y="208" width="1792" height="1879"/></clipPath></defs><g clip-path="url(#clip0)" transform="translate(-1304 -208)"><path d="M2200 322.207C2136.95 322.207 2085.84 373.339 2085.84 436.414 2085.84 499.489 2136.95 550.621 2200 550.621 2263.05 550.621 2314.16 499.489 2314.16 436.414 2314.16 373.339 2263.05 322.207 2200 322.207ZM2200 208C2326.1 208 2428.32 310.265 2428.32 436.414 2428.32 531.027 2370.82 612.203 2288.87 646.879L2271.66 652.223 2271.66 1809.62 2319.04 1802.14C2515.18 1760.96 2674.54 1620.14 2741.95 1435.17L2750.83 1407.12 2735.87 1413.51C2593.1 1461.96 2428.09 1213.3 2837.47 912.417 3279.6 1237.38 3051.77 1501.41 2905.54 1396.05L2890.96 1383.88 2878.84 1434.5C2800.41 1705.47 2564.24 1909.55 2276.02 1940.4L2271.66 1940.64 2271.66 2087 2128.34 2087 2128.34 1940.68 2062.14 1931.01C1801.16 1879.36 1591.42 1683.82 1519.83 1429.83L1508.99 1383.77 1477.91 1406.25C1332.27 1481.76 1136.77 1225.34 1562.53 912.417 1955.53 1201.27 1819.18 1441.98 1681.33 1417.91L1649 1406.88 1660.37 1441.42C1729.92 1625.6 1890.89 1764.57 2087.5 1803.48L2128.34 1809.45 2128.34 652.223 2111.13 646.879C2029.18 612.203 1971.68 531.027 1971.68 436.414 1971.68 310.265 2073.9 208 2200 208Z" fill="#A6A6A6" fill-rule="evenodd"/></g></svg>